<mxfile host="app.diagrams.net" modified="2021-11-20T03:01:34.583Z" agent="5.0 (Macintosh)" etag="XfdbPI6EX160lX34dp48" version="14.7.6" type="github">
  <diagram id="tSPigEAYxKMWaiqZoppW" name="Page-1">
    <mxGraphModel dx="878" dy="587" grid="1" gridSize="10" guides="1" tooltips="1" connect="1" arrows="1" fold="1" page="1" pageScale="1" pageWidth="827" pageHeight="1169" math="0" shadow="0">
      <root>
        <mxCell id="0" />
        <mxCell id="1" parent="0" />
        <mxCell id="T3HsLUTjVdeeI4A1XSZf-1" value="容器创建" style="swimlane;" vertex="1" parent="1">
          <mxGeometry x="60" y="150" width="200" height="200" as="geometry" />
        </mxCell>
        <mxCell id="T3HsLUTjVdeeI4A1XSZf-2" value="容器设置" style="swimlane;startSize=23;" vertex="1" parent="1">
          <mxGeometry x="260" y="150" width="200" height="200" as="geometry" />
        </mxCell>
        <mxCell id="T3HsLUTjVdeeI4A1XSZf-3" value="容器后置" style="swimlane;startSize=23;" vertex="1" parent="1">
          <mxGeometry x="460" y="150" width="200" height="200" as="geometry" />
        </mxCell>
      </root>
    </mxGraphModel>
  </diagram>
</mxfile>
